<?xml version="1.0" standalone="no"?>
<!DOCTYPE svg PUBLIC "-//W3C//DTD SVG 1.1//EN" "http://www.w3.org/Graphics/SVG/1.1/DTD/svg11.dtd" >
<svg xmlns="http://www.w3.org/2000/svg" xmlns:xlink="http://www.w3.org/1999/xlink" version="1.1" viewBox="-10 0 1048 1000">
   <path fill="currentColor"
d="M102.963 884.107h-15.084c-17.957 0 -31.6045 -2.51367 -40.9424 -7.54297c-9.33789 -5.02734 -17.958 -18.6738 -25.8594 -40.9414c-0.717773 -1.4375 -1.07715 -3.5918 -1.07715 -6.46484c0 -3.5918 2.15527 -5.38672 6.46484 -5.38672
c0.71875 0 1.43652 0.179688 2.15527 0.537109c0.717773 0.359375 1.43652 0.539062 2.1543 0.539062c9.33789 2.15625 17.958 3.95117 25.8584 5.38867c7.90137 1.43555 16.1621 2.1543 24.7812 2.1543h7.54199l248.89 -8.61914l61.4141 -334.008l-145.455 7.54297
c-5.02832 0 -9.51758 0.179688 -13.4678 0.539062c-3.9502 0.357422 -7.72168 0.537109 -11.3135 0.537109c-14.3652 0 -24.4219 -2.51367 -30.168 -7.54102c-7.18262 -5.74609 -12.9297 -13.4688 -17.2393 -23.166c-4.30957 -9.69531 -6.46484 -15.623 -6.46484 -17.7773
c0 -4.30859 2.51465 -6.46484 7.54199 -6.46484h3.23242c7.18359 2.15625 14.0068 3.5918 20.4717 4.31055s12.5703 1.07812 18.3164 1.07812c3.5918 0 7.3623 -0.179688 11.3135 -0.539062c3.9502 -0.359375 7.72168 -0.539062 11.3125 -0.539062l160.539 -7.54297
l45.2529 -247.811l-237.037 14.0059c-4.30957 0.71875 -8.26074 1.07812 -11.8525 1.07812h-10.7744c-15.8018 0 -27.4746 -2.69336 -35.0166 -8.08008c-7.54199 -5.38867 -14.5449 -17.4199 -21.0098 -36.0957c-0.71875 -1.43555 -1.07715 -3.23242 -1.07715 -5.38672
c0 -2.87305 1.79492 -4.31055 5.38672 -4.31055c0.71875 0 1.43652 0.179688 2.15527 0.539062c0.717773 0.359375 1.43652 0.539062 2.1543 0.539062c11.4932 2.87305 23.3447 4.31055 35.5557 4.31055c3.5918 0 7.00391 -0.179688 10.2354 -0.539062
c3.23242 -0.359375 6.28516 -0.539062 9.15918 -0.539062l545.185 -32.3223c10.0566 -0.71875 18.8555 -1.79688 26.3975 -3.23242c7.54199 -1.4375 15.2637 -3.23242 23.165 -5.38867c1.43652 0 2.51367 -0.179688 3.23242 -0.537109
c0.717773 -0.359375 1.7959 -0.539062 3.23242 -0.539062c5.02734 0 11.4922 1.79492 19.3936 5.38672s15.084 8.25977 21.5488 14.0059c6.46484 5.74805 9.69727 12.5703 9.69727 20.4727c0 8.61914 -5.3877 13.6465 -16.1621 15.084l-324.31 18.3164l-46.3301 247.811
l261.818 -12.9277h5.3877c12.2109 0 22.626 3.05273 31.2451 9.1582c8.62012 6.10547 12.9297 13.4668 12.9297 22.0859c0 4.31055 -0.898438 8.26172 -2.69336 11.8535c-1.7959 3.58984 -3.05273 6.82227 -3.77148 9.69531l-34.4785 334.008l138.99 -4.31055
c10.0566 -0.71875 18.6758 -1.43555 25.8584 -2.1543c7.18359 -0.71875 15.085 -2.51367 23.7041 -5.38672c1.43652 -0.71875 3.5918 -1.07812 6.46484 -1.07812c7.90137 0 17.957 4.84766 30.168 14.5449s18.3164 19.5742 18.3164 29.6309
c0 7.90039 -5.38672 12.5703 -16.1611 14.0059zM711.718 474.68l-255.354 12.9297l-62.4922 335.084l287.677 -9.69727z" />
</svg>
