<?xml version="1.0" standalone="no"?>
<!DOCTYPE svg PUBLIC "-//W3C//DTD SVG 1.1//EN" "http://www.w3.org/Graphics/SVG/1.1/DTD/svg11.dtd" >
<svg xmlns="http://www.w3.org/2000/svg" xmlns:xlink="http://www.w3.org/1999/xlink" version="1.1" viewBox="-10 0 1073 1000">
   <path fill="currentColor"
d="M107.785 553.458c-7.50293 0.750977 -14.2559 1.31348 -20.2588 1.68848c-6.00195 0.375 -11.2539 0.5625 -15.7559 0.5625c-12.0049 0 -21.9463 -4.31445 -29.8242 -12.9424s-13.5049 -17.6318 -16.8818 -27.0107
c-3.37598 -9.37891 -5.06445 -15.5684 -5.06445 -18.5693c0 -3.75195 1.87598 -5.62695 5.62793 -5.62695c2.25098 0 4.12598 0.375 5.62695 1.125c6.75293 2.25098 14.4434 3.75098 23.0713 4.50195c8.62891 0.75 16.6943 1.125 24.1973 1.125h13.5049l777.679 -43.8916
c12.7549 -0.750977 22.6963 -1.68848 29.8242 -2.81348c7.12793 -1.12598 14.8184 -3.18945 23.0713 -6.19043c1.50098 -0.75 3.37695 -1.125 5.62793 -1.125c3.00098 0 8.62793 2.0625 16.8809 6.18945c8.25391 4.12695 16.1318 9.75391 23.6348 16.8818
s11.2539 15.1934 11.2539 24.1973c0 9.00293 -5.25195 14.2549 -15.7559 15.7559z" />
</svg>
