<?xml version="1.0" standalone="no"?>
<!DOCTYPE svg PUBLIC "-//W3C//DTD SVG 1.1//EN" "http://www.w3.org/Graphics/SVG/1.1/DTD/svg11.dtd" >
<svg xmlns="http://www.w3.org/2000/svg" xmlns:xlink="http://www.w3.org/1999/xlink" version="1.1" viewBox="-10 0 1094 1000">
   <path fill="currentColor"
d="M107.805 411.609c-5.46387 0.780273 -10.5371 1.1709 -15.2197 1.1709h-12.8779c-18.7314 0 -32.585 -6.43848 -41.5615 -19.3174c-8.97559 -12.8779 -14.6338 -23.2188 -16.9756 -31.0244c-0.780273 -1.56055 -1.16992 -3.51172 -1.16992 -5.85352
c0 -3.90234 1.95117 -5.85352 5.85352 -5.85352c1.56055 0 2.73145 0.195312 3.51172 0.585938c0.780273 0.389648 1.56152 0.584961 2.3418 0.584961c7.80469 1.56055 16 2.73145 24.585 3.51172c8.58594 0.78125 16.7812 1.1709 24.5859 1.1709h14.0488l368.78 -21.0732
l-2.3418 -220.098c0 -21.0723 -4.68262 -41.3652 -14.0488 -60.8779c-0.780273 -1.56055 -1.1709 -3.12207 -1.1709 -4.68262c0 -4.68262 4.29297 -7.02441 12.8789 -7.02441c1.56055 0 7.80469 0.780273 18.7314 2.3418c10.9268 1.56055 21.4629 4.4873 31.6094 8.78027
s15.2197 11.5117 15.2197 21.6582v257.562l325.464 -18.7324c12.4873 -0.780273 24 -1.95117 34.5361 -3.51172c10.5371 -1.56055 21.2686 -3.90234 32.1953 -7.02441c1.56055 -0.780273 3.12207 -1.36621 4.68262 -1.75586
c1.56152 -0.390625 3.5127 -0.585938 5.85352 -0.585938c3.90234 0 10.1465 2.3418 18.7324 7.02441c8.58496 4.68359 16.3896 10.5371 23.4141 17.5615s10.5371 14.4385 10.5371 22.2432c0 9.36621 -5.07324 14.8301 -15.2197 16.3906zM49.2676 957.171
c-9.36523 0 -14.0488 -3.5127 -14.0488 -10.5371s5.85449 -16.3896 17.5615 -28.0977c55.4141 -50.7314 105.365 -103.609 149.854 -158.634s82.7314 -114.536 114.731 -178.536c2.3418 -4.68359 4.48828 -10.9277 6.43945 -18.7324s3.70703 -15.2197 5.26855 -22.2441
c0.780273 -3.90234 3.12109 -5.85352 7.02441 -5.85352c3.12109 0 8.97559 2.92676 17.5605 8.78125c8.58496 5.85352 16.7803 13.2676 24.585 22.2432c7.80566 8.97559 11.708 18.5371 11.708 28.6836c0 3.12207 -0.78125 6.24316 -2.3418 9.36523
c-36.6826 60.8779 -73.5605 113.366 -110.634 157.464s-71.6104 80.7803 -103.61 110.049c-32 29.2676 -59.1221 50.9268 -81.3652 64.9756c-22.2441 14.0488 -36.4883 21.0732 -42.7324 21.0732zM942.536 891.609c0 10.1465 -5.46289 18.9268 -16.3906 26.3418
c-10.9268 7.41504 -19.5117 11.1221 -25.7559 11.1221c-8.58496 0 -15.2197 -3.5127 -19.9023 -10.5371c-41.3652 -60.0977 -85.4629 -117.854 -132.293 -173.268c-46.8291 -55.415 -96.3896 -107.317 -148.683 -155.708
c-4.68262 -4.68262 -7.02441 -9.36523 -7.02441 -14.0488c0 -6.24316 3.31738 -13.6582 9.95117 -22.2432c6.63477 -8.58594 13.8535 -12.8789 21.6592 -12.8789c3.12109 0 7.02441 1.56152 11.707 4.68359c51.5117 49.1709 102.244 100.683 152.195 154.536
s99.1221 112 147.512 174.439c4.68262 5.46289 7.02441 11.3174 7.02441 17.5605z" />
</svg>
