<?xml version="1.0" standalone="no"?>
<!DOCTYPE svg PUBLIC "-//W3C//DTD SVG 1.1//EN" "http://www.w3.org/Graphics/SVG/1.1/DTD/svg11.dtd" >
<svg xmlns="http://www.w3.org/2000/svg" xmlns:xlink="http://www.w3.org/1999/xlink" version="1.1" viewBox="-10 0 1132 1000">
   <path fill="currentColor"
d="M133.16 815.855l4.97461 90.7773v3.73047c0 5.80273 -1.45117 10.7773 -4.35254 14.9219s-7.66895 6.2168 -14.3008 6.2168c-9.11914 0 -20.1035 -3.9375 -32.9531 -11.8125s-19.2744 -17.6172 -19.2744 -29.2227v-9.94922
c0 -3.31445 0.414062 -7.04492 1.24316 -11.1914c0.829102 -9.11914 1.45117 -18.4453 1.86523 -27.9785s0.62207 -19.6895 0.62207 -30.4668v-24.8711l-31.0889 -576.994c-0.828125 -19.8965 -2.69434 -37.7207 -5.5957 -53.4707
c-2.90137 -15.752 -6.4248 -31.5039 -10.5693 -47.2539c-0.829102 -4.14648 -1.6582 -7.66992 -2.4873 -10.5703c-0.829102 -2.90234 -1.24316 -5.5957 -1.24316 -8.08398c0 -5.80273 2.90137 -8.70312 8.7041 -8.70312c5.80371 0 14.7148 2.48633 26.7363 7.46094
c12.0205 4.97266 28.3936 13.6777 49.1191 26.1133l815.751 -46.0098h8.7041c14.0938 0 26.1143 5.18164 36.0625 15.543c9.94824 10.3633 14.9229 19.2754 14.9229 26.7363c0 4.14453 -1.03711 8.08203 -3.10938 11.8145
c-2.07227 3.73047 -3.52344 7.25391 -4.35254 10.5684l-43.5234 594.404c24.042 21.5547 36.0625 37.7207 36.0625 48.498c0 9.11914 -10.3623 14.5078 -31.0879 16.166zM905.388 128.188l-293.471 16.1641l-2.4873 220.105v14.9219
c0 29.0156 3.73047 48.082 11.1914 57.2012s27.3574 13.6797 59.6895 13.6797c26.5283 0 47.2539 -0.623047 62.1758 -1.86523c14.9229 -1.24414 27.3574 -3.52344 37.3057 -6.83984s20.7256 -7.04688 32.332 -11.1914c1.6582 -0.830078 4.14453 -1.24414 7.46094 -1.24414
c9.11914 0 20.3105 5.18164 33.5752 15.5449c13.2646 10.3613 19.8965 20.5176 19.8965 30.4648c0 10.7773 -7.87598 17.4102 -23.627 19.8965c-25.6992 4.97461 -53.2646 8.91211 -82.6943 11.8145c-29.4297 2.90039 -57.4092 4.35156 -83.9375 4.35156
c-45.5967 0 -79.5859 -7.25391 -101.97 -21.7617c-22.3828 -14.5078 -33.5742 -45.8027 -33.5742 -93.8848v-4.97461l2.48633 -243.73l-144.248 8.70508c-2.4873 82.0723 -10.9844 151.088 -25.4922 207.047c-14.5078 55.957 -36.6846 104.455 -66.5293 145.492
c-29.8438 41.0352 -68.8076 80.6211 -116.891 118.756c-14.0938 11.6055 -25.6992 17.4082 -34.8184 17.4082c-6.63281 0 -9.94824 -3.31445 -9.94824 -9.94727c0 -9.11914 6.2168 -19.8965 18.6523 -32.332c38.1348 -38.1348 69.8447 -76.8906 95.1299 -116.27
c25.2852 -39.377 44.3525 -84.9746 57.2021 -136.787s19.2744 -115.439 19.2744 -190.881l-242.487 13.6797l31.0879 588.186l732.436 -26.1133z" />
</svg>
