<?xml version="1.0" standalone="no"?>
<!DOCTYPE svg PUBLIC "-//W3C//DTD SVG 1.1//EN" "http://www.w3.org/Graphics/SVG/1.1/DTD/svg11.dtd" >
<svg xmlns="http://www.w3.org/2000/svg" xmlns:xlink="http://www.w3.org/1999/xlink" version="1.1" viewBox="-10 0 1074 1000">
   <path fill="currentColor"
d="M235.211 227.324c-6.00879 0.750977 -11.6426 1.12695 -16.9014 1.12695h-13.5215h-5.63379c-12.0186 0 -21.2207 -4.31934 -27.6055 -12.958s-12.2061 -20.0938 -17.4648 -34.3662c-0.750977 -1.50195 -1.12598 -3.37988 -1.12598 -5.63379
c0 -3.00488 1.87793 -4.50684 5.63379 -4.50684c0.750977 0 1.50195 0.1875 2.25293 0.563477c0.750977 0.375 1.50293 0.563477 2.25391 0.563477c11.2676 3.00391 23.6621 4.50684 37.1826 4.50684c3.00488 0 6.19727 -0.188477 9.57812 -0.563477
c3.37988 -0.375977 6.57227 -0.563477 9.57715 -0.563477l512.676 -30.4229c10.5166 -0.750977 19.5303 -2.06543 27.042 -3.94336s15.3994 -3.56836 23.6621 -5.07031c1.50293 0 2.81738 -0.1875 3.94434 -0.563477c1.12598 -0.375977 2.44141 -0.563477 3.94336 -0.563477
c9.76562 0 21.7842 5.63379 36.0566 16.9014c9.01367 9.01465 13.5205 17.6523 13.5205 25.916c0 9.76465 -4.88281 15.3984 -14.6475 16.9014zM298.31 524.789c-3.75586 0 -7.32422 0.1875 -10.7041 0.563477c-3.37988 0.375 -6.57324 0.563477 -9.57715 0.563477
c-10.5166 0 -19.9062 -3.19238 -28.1689 -9.57812c-8.26367 -6.38477 -16.1504 -21.2207 -23.6621 -44.5068c-0.750977 -1.50195 -1.12695 -3.37988 -1.12695 -5.63379c0 -2.25293 1.87793 -3.37988 5.63379 -3.37988h3.37988
c7.51172 1.50195 14.6484 2.81641 21.4092 3.94336c6.75977 1.12695 14.2715 1.69043 22.5352 1.69043h7.88672l403.381 -23.6621c8.2627 -0.750977 15.7744 -1.50293 22.5352 -2.25391s13.1455 -2.25293 19.1543 -4.50684
c1.50293 -0.750977 4.13184 -1.12695 7.8877 -1.12695c3.00488 0 8.2627 1.69043 15.7744 5.07031c7.51172 3.38086 14.6484 8.0752 21.4082 14.085c6.76074 6.00977 10.1416 13.1455 10.1416 21.4082c0 12.0186 -7.13672 18.7793 -21.4092 20.2822zM95.4932 865.07
h-18.0283c-17.2773 0 -28.7324 -3.00391 -34.3662 -9.01367s-12.958 -21.0332 -21.9717 -45.0703c-0.751953 -1.50293 -1.12695 -3.38086 -1.12695 -5.63379c0 -3.00488 1.87793 -4.50684 5.63379 -4.50684c0.750977 0 1.69043 0.1875 2.81641 0.5625
c1.12695 0.375977 2.06641 0.563477 2.81738 0.563477c8.2627 0.751953 15.9619 1.69043 23.0986 2.81738c7.13574 1.12695 14.46 1.69043 21.9717 1.69043h10.1406l779.719 -28.1699c10.5166 -0.750977 19.9062 -1.68945 28.1689 -2.81641
s18.0283 -2.81738 29.2959 -5.07031h4.50684c7.51172 0 18.0283 4.13086 31.5488 12.3945c13.5215 8.2627 20.2822 19.5303 20.2822 33.8027c0 11.2676 -4.50684 16.9014 -13.5215 16.9014z" />
</svg>
