<?xml version="1.0" standalone="no"?>
<!DOCTYPE svg PUBLIC "-//W3C//DTD SVG 1.1//EN" "http://www.w3.org/Graphics/SVG/1.1/DTD/svg11.dtd" >
<svg xmlns="http://www.w3.org/2000/svg" xmlns:xlink="http://www.w3.org/1999/xlink" version="1.1" viewBox="-10 0 1076 1000">
   <path fill="currentColor"
d="M237.615 285.785c-5.29004 0 -10.2012 0.189453 -14.7344 0.566406c-4.53418 0.376953 -8.68945 0.566406 -12.4678 0.566406c-19.6465 0 -32.8691 -5.09961 -39.6699 -15.3008c-6.7998 -10.2012 -12.0898 -22.1016 -15.8672 -35.7031
c-0.755859 -1.50977 -1.13379 -3.40039 -1.13379 -5.66602c0 -3.02344 1.88867 -4.5332 5.66699 -4.5332c0.755859 0 1.51172 0.1875 2.2666 0.566406c0.755859 0.376953 1.51172 0.566406 2.26758 0.566406c12.0898 3.02148 26.4463 4.5332 43.0693 4.5332h14.7344
l465.832 -24.9355c11.334 -0.755859 21.7236 -1.69922 31.1689 -2.83203c9.44531 -1.13477 19.0791 -3.21289 28.9023 -6.23438c1.51074 -0.755859 4.5332 -1.13281 9.06738 -1.13281c7.55566 0 17.7568 4.1543 30.6016 12.4668
c12.8457 8.3125 19.2686 19.2676 19.2686 32.8691c0 9.82227 -4.91211 15.4902 -14.7344 17zM107.272 802.621c-5.28906 0 -10.2012 0.1875 -14.7344 0.566406c-4.53418 0.376953 -8.68945 0.566406 -12.4678 0.566406c-17.3789 0 -29.0908 -3.77734 -35.1357 -11.334
c-5.28906 -6.04492 -10.0117 -13.0352 -14.168 -20.9688c-4.15527 -7.93359 -7.36621 -15.3008 -9.63379 -22.1016c-0.754883 -1.50977 -1.13281 -3.77734 -1.13281 -6.79883c0 -4.53516 2.2666 -6.80078 6.7998 -6.80078c1.51172 0 3.02246 0.376953 4.53418 1.13281
c9.06738 2.26758 18.3232 4.15625 27.7686 5.66797c9.44531 1.50977 18.3232 2.26562 26.6348 2.26562h6.80078l777.521 -32.8691c19.6455 -0.755859 37.0244 -3.40039 52.1367 -7.93359c1.51172 0 2.83398 -0.189453 3.9668 -0.566406
c1.13379 -0.378906 2.07812 -0.566406 2.83398 -0.566406c10.5781 0 21.7236 5.66602 33.4355 17s17.5684 21.5352 17.5684 30.6035c0 9.82227 -5.66699 15.4902 -17.002 17z" />
</svg>
