<?xml version="1.0" standalone="no"?>
<!DOCTYPE svg PUBLIC "-//W3C//DTD SVG 1.1//EN" "http://www.w3.org/Graphics/SVG/1.1/DTD/svg11.dtd" >
<svg xmlns="http://www.w3.org/2000/svg" xmlns:xlink="http://www.w3.org/1999/xlink" version="1.1" viewBox="-10 0 1084 1000">
   <path fill="currentColor"
d="M149.542 542.795c-10.7949 29.3008 -22.5537 58.2168 -35.2773 86.748c-12.7227 28.5293 -25.2529 53.9746 -37.5898 76.3359c-3.08496 7.71094 -8.86719 11.5664 -17.3496 11.5664c-7.71094 0 -16.1924 -3.85547 -25.4453 -11.5664
c-9.25391 -7.71094 -13.8799 -15.4219 -13.8799 -23.1328c0 -3.85547 1.15625 -8.0957 3.46973 -12.7227c12.3379 -20.0469 24.8672 -43.373 37.5908 -69.9746c12.7227 -26.6035 24.6748 -54.5547 35.8555 -83.8555c11.1807 -29.3027 20.626 -57.0605 28.3369 -83.2773
c1.54199 -6.16992 3.46973 -10.9883 5.7832 -14.459c2.31348 -3.46875 6.16895 -5.20508 11.5664 -5.20508c7.71094 0 16 2.69922 24.8672 8.09766c8.86719 5.39648 13.3018 11.5664 13.3018 18.5059c0 2.3125 -0.579102 5.7832 -1.73535 10.4102
c-1.15625 4.625 -5.20508 18.1191 -12.1445 40.4805l294.939 -16.1914l-1.15625 -144.578c0 -10.7969 -3.85547 -21.9766 -11.5664 -33.543c-1.54199 -3.08398 -2.31348 -5.01172 -2.31348 -5.7832c0 -5.39844 5.7832 -8.0957 17.3496 -8.0957
c13.1084 0 26.6025 2.50586 40.4814 7.51758c13.8799 5.01172 20.8193 12.1445 20.8193 21.3965l-1.15625 159.615l400.192 -21.9766h6.94043c11.5664 0 22.5537 3.08594 32.9639 9.25391c10.4092 6.16797 15.6143 13.4941 15.6143 21.9766
c0 5.39648 -1.92773 10.4082 -5.7832 15.0352s-6.93945 8.86719 -9.25293 12.7227c-10.0244 18.5059 -21.5908 38.1699 -34.6992 58.9883c-13.1084 20.8203 -26.4092 40.6758 -39.9033 59.5664c-13.4941 18.8926 -26.2168 34.3125 -38.1689 46.2656
c-11.9512 11.9512 -21.3975 17.9277 -28.3369 17.9277c-5.39746 0 -8.09668 -3.4707 -8.09668 -10.4102c0 -9.25391 5.0127 -23.5176 15.0361 -42.7949c11.5664 -20.0488 22.9404 -41.6387 34.1211 -64.7715s21.7822 -46.6504 31.8066 -70.5547z" />
</svg>
