<?xml version="1.0" standalone="no"?>
<!DOCTYPE svg PUBLIC "-//W3C//DTD SVG 1.1//EN" "http://www.w3.org/Graphics/SVG/1.1/DTD/svg11.dtd" >
<svg xmlns="http://www.w3.org/2000/svg" xmlns:xlink="http://www.w3.org/1999/xlink" version="1.1" viewBox="-10 0 1039 1000">
   <path fill="currentColor"
d="M980 698.121c-0.71582 19.3281 -1.96875 41.5215 -3.75781 66.5762c-1.79004 25.0566 -5.54883 51.1855 -11.2754 78.3906c-4.2959 24.3398 -12.3486 43.1309 -24.1611 56.375s-30.4248 22.5508 -55.8389 27.9199s-61.3867 8.05273 -107.92 8.05273
c-16.4648 0 -33.6465 -0.894531 -51.543 -2.68359c-17.8975 -1.78906 -34.7207 -5.90625 -50.4697 -12.3496c-15.75 -6.44336 -28.457 -16.2852 -38.1211 -29.5293s-14.4971 -31.3203 -14.4971 -54.2285c0 -1.43164 0.179688 -3.2207 0.537109 -5.36914
c0.358398 -2.14844 0.537109 -4.29492 0.537109 -6.44336l47.248 -467.113l-219.061 18.2539c-7.1582 39.375 -15.9277 77.3164 -26.3086 113.826c-10.3799 36.5098 -22.0137 70.5137 -34.8994 102.014c-21.4766 52.2598 -46.8896 98.6133 -76.2412 139.061
s-59.7764 74.9883 -91.2754 103.623c-31.499 28.6367 -61.0293 52.082 -88.5908 70.3359c-27.5615 18.2559 -50.8271 31.6777 -69.7979 40.2695c-18.9717 8.58984 -30.6045 12.8848 -34.8994 12.8848c-6.44336 0 -9.66504 -2.50586 -9.66504 -7.51562
c0 -7.16016 6.44336 -15.0352 19.3291 -23.625c66.5771 -44.3848 121.163 -90.0215 163.759 -136.912c42.5947 -46.8906 76.2412 -93.7812 100.939 -140.672c24.6973 -46.8906 43.6689 -93.0645 56.9121 -138.523c13.2441 -45.459 23.8037 -88.9492 31.6787 -130.471
l-212.618 17.1816c-5.01074 0.716797 -9.84277 1.25391 -14.4961 1.61133s-8.76953 0.537109 -12.3496 0.537109c-9.30664 0 -16.4648 -2.14844 -21.4766 -6.44336c-7.1582 -5.01172 -12.8857 -10.918 -17.1807 -17.7188
c-4.2959 -6.80078 -7.15918 -13.4219 -8.59082 -19.8652c-0.71582 -1.43164 -1.07422 -3.2207 -1.07422 -5.36914c0 -2.14648 1.79004 -3.2207 5.36914 -3.2207h3.22168c14.3184 2.14648 26.4883 3.2207 36.5107 3.2207c5.01074 0 9.66406 -0.179688 13.959 -0.537109
c4.2959 -0.357422 8.59082 -0.537109 12.8857 -0.537109l224.43 -18.2539c6.44336 -38.6582 11.0967 -76.7793 13.96 -114.363s4.29492 -72.8398 4.29492 -105.771c0 -12.1699 -0.894531 -22.1914 -2.68457 -30.0664c-1.78906 -7.875 -4.47363 -17.5391 -8.05371 -28.9941
v-2.14844c0 -5.00977 3.9375 -7.51562 11.8125 -7.51562c5.72754 0 13.2441 1.43164 22.5508 4.29492c9.30566 2.86328 17.7178 6.98047 25.2344 12.3496s11.2754 12.3477 11.2754 20.9395c0 39.373 -1.79004 80 -5.36914 121.879s-8.23242 83.2207 -13.96 124.027
l221.208 -18.2559h8.59082c16.4648 0 27.7402 3.40039 33.8252 10.2012s9.12793 13.0645 9.12793 18.793c0 4.29492 -0.71582 8.76953 -2.14746 13.4219c-1.43164 4.6543 -2.50586 9.12891 -3.22168 13.4238l-46.1748 448.859
c-0.71582 2.86328 -1.07324 5.54688 -1.07324 8.05273v6.98047c0 22.1914 8.05371 36.3301 24.1611 42.416c16.1064 6.08398 42.0576 9.12695 77.8516 9.12695c37.9424 0 65.3252 -2.14844 82.1484 -6.44336s28.0977 -10.2012 33.8252 -17.7168
c5.72656 -7.51758 10.3799 -16.6445 13.96 -27.3828c3.5791 -9.30664 7.5166 -21.8359 11.8115 -37.584c4.2959 -15.75 8.41211 -32.2148 12.3496 -49.3965c3.93652 -17.1816 6.62109 -32.2148 8.05371 -45.1016c5.01074 -32.9297 12.5273 -49.3945 22.5498 -49.3945
c8.59082 0 12.8857 15.0332 12.8857 45.0996v7.51758z" />
</svg>
