<?xml version="1.0" standalone="no"?>
<!DOCTYPE svg PUBLIC "-//W3C//DTD SVG 1.1//EN" "http://www.w3.org/Graphics/SVG/1.1/DTD/svg11.dtd" >
<svg xmlns="http://www.w3.org/2000/svg" xmlns:xlink="http://www.w3.org/1999/xlink" version="1.1" viewBox="-10 0 1058 1000">
   <path fill="currentColor"
d="M447.777 518.334l-1.11133 237.777c0 32.5918 4.25977 57.2227 12.7783 73.8887s25.5557 27.7773 51.1104 33.334c25.5557 5.55469 64.2598 8.33203 116.111 8.33203c38.5186 0 75.9258 -1.85156 112.223 -5.55469c36.2959 -3.70312 68.5186 -8.33398 96.666 -13.8887
c28.1484 -5.55664 48.5186 -11.2969 61.1113 -17.2227c4.44434 -2.22266 8.88867 -3.33398 13.334 -3.33398c12.5918 0 24.0732 5.74219 34.4443 17.2227c10.3701 11.4824 15.5557 20.9258 15.5557 28.334c0 10.3691 -7.4082 16.666 -22.2227 18.8887
c-60 9.62891 -116.296 17.2227 -168.889 22.7773c-52.5928 5.55664 -101.853 8.33398 -147.778 8.33398c-54.8145 0 -99.4443 -3.51953 -133.889 -10.5566s-59.8145 -21.8516 -76.1113 -44.4434c-16.2959 -22.5938 -24.4443 -56.4824 -24.4443 -101.668v-4.44336
l1.11133 -237.777l-274.444 45.5547c-10.3701 1.48242 -18.7041 2.77734 -25 3.88867c-6.29688 1.11133 -12.0371 1.66797 -17.2227 1.66797c-6.66602 0 -12.9629 -1.48242 -18.8887 -4.44531c-5.92578 -3.70312 -11.667 -8.70312 -17.2217 -15
c-5.55566 -6.29688 -10.1855 -12.4082 -13.8896 -18.334c-0.740234 -1.48047 -1.11035 -3.33203 -1.11035 -5.55469c0 -5.92578 3.33301 -8.88867 10 -8.88867c3.70312 0.740234 6.85156 1.11133 9.44434 1.11133h8.33301c8.14844 0 15.7412 -0.556641 22.7773 -1.66797
c7.03711 -1.11133 13.8896 -2.03711 20.5557 -2.77734l297.778 -48.8887l2.22168 -344.445c0 -8.14648 -0.740234 -15.7402 -2.22168 -22.7773s-4.81543 -14.2598 -10 -21.666c-1.48145 -2.96289 -2.22266 -4.81445 -2.22266 -5.55664
c0 -5.18359 4.07422 -7.77734 12.2227 -7.77734c6.66602 0 16.666 2.22266 30 6.66797c21.4814 8.14648 32.2217 16.666 32.2217 25.5547l-2.22168 360l402.222 -65.5547c10.3711 -1.48242 20.1855 -3.89062 29.4443 -7.22266
c9.25977 -3.33398 18.7041 -7.22266 28.334 -11.668c2.22168 -1.48047 4.81445 -2.5918 7.77734 -3.33203c2.96289 -0.742188 5.92578 -1.11133 8.88867 -1.11133c4.44531 0 10.9268 1.85156 19.4453 5.55469c8.51855 3.70508 16.4814 8.70508 23.8887 15
c7.40723 6.29688 11.1113 13.5195 11.1113 21.668c0 8.88867 -5.18555 14.0742 -15.5557 15.5547z" />
</svg>
