<?xml version="1.0" standalone="no"?>
<!DOCTYPE svg PUBLIC "-//W3C//DTD SVG 1.1//EN" "http://www.w3.org/Graphics/SVG/1.1/DTD/svg11.dtd" >
<svg xmlns="http://www.w3.org/2000/svg" xmlns:xlink="http://www.w3.org/1999/xlink" version="1.1" viewBox="-10 0 1103 1000">
   <path fill="currentColor"
d="M655.26 536.741c-15.0127 50.5674 -26.8643 88.6914 -35.5557 114.37s-15.8027 42.667 -21.334 50.9629c-5.53027 8.29688 -11.0615 12.4443 -16.5918 12.4443c-7.90137 0 -11.8525 -6.32031 -11.8525 -18.9629c0 -4.74023 0.395508 -8.69141 1.18555 -11.8516
c5.53125 -22.9141 10.8643 -46.6172 16 -71.1113s10.0742 -48.9873 14.8145 -73.4814l-234.666 13.0371l15.4072 135.111v2.37012c0 8.69141 -5.53125 13.0371 -16.5928 13.0371c-6.32129 0 -15.4072 -2.56836 -27.2588 -7.7041
c-11.8525 -5.13574 -17.7783 -15.6045 -17.7783 -31.4072v-43.8516l-8.2959 -65.1855l-219.26 11.8525h-18.9629c-14.2217 0 -24.8887 -3.3584 -32 -10.0742c-7.11133 -6.7168 -14.2217 -17.5801 -21.333 -32.5928c-0.790039 -0.790039 -1.18555 -2.37012 -1.18555 -4.74121
c0 -2.37012 1.97559 -3.55566 5.92578 -3.55566h3.55566c15.8027 3.16113 30.8154 4.74121 45.0371 4.74121h16.5928l216.889 -11.8516l-16.5928 -136.297c-0.790039 -10.2715 -2.17285 -18.7656 -4.14746 -25.4814c-1.97559 -6.71582 -4.93848 -14.0244 -8.88965 -21.9258
c-0.790039 -1.58008 -1.18457 -3.55566 -1.18457 -5.92578c0 -4.74121 3.9502 -7.11133 11.8516 -7.11133c3.16016 0 9.08691 0.592773 17.7783 1.77832c8.69141 1.18457 16.79 3.75293 24.2959 7.70312c7.50586 3.95117 11.6543 9.87695 12.4443 17.7783l18.9629 165.926
l248.889 -14.2227c4.74121 -26.0742 9.28418 -52.3457 13.6299 -78.8145c4.3457 -26.4697 7.7041 -52.7412 10.0742 -78.8145v-5.92676c0 -5.53027 -0.395508 -10.8643 -1.18555 -16s-1.97461 -10.4688 -3.55566 -16v-2.37012c0 -4.74023 4.3457 -7.11133 13.0371 -7.11133
c13.4326 0 26.8643 3.55566 40.2969 10.667c13.4316 7.11133 20.1475 14.6172 20.1475 22.5186c0 1.58008 -2.96289 18.5674 -8.88867 50.9629s-14.8145 71.9014 -26.666 118.519l201.481 -11.8516c11.0615 -0.790039 20.543 -1.58008 28.4443 -2.37109
c7.90137 -0.790039 15.8018 -2.76465 23.7031 -5.92578c2.37109 -0.790039 4.74121 -1.38281 7.11133 -1.77734c2.37012 -0.395508 4.74121 -0.592773 7.11133 -0.592773c15.0127 0 26.0742 5.53125 33.1855 16.5928c7.11035 11.0615 10.666 18.1729 10.666 21.333
c0 9.48145 -7.11133 15.0127 -21.333 16.5928z" />
</svg>
