<?xml version="1.0" standalone="no"?>
<!DOCTYPE svg PUBLIC "-//W3C//DTD SVG 1.1//EN" "http://www.w3.org/Graphics/SVG/1.1/DTD/svg11.dtd" >
<svg xmlns="http://www.w3.org/2000/svg" xmlns:xlink="http://www.w3.org/1999/xlink" version="1.1" viewBox="-10 0 1025 1000">
   <path fill="currentColor"
d="M507.32 107.844c18.126 0 29.8037 2.26562 35.0322 6.79688c5.22949 4.53125 9.23828 10.6328 12.0264 18.3008c3.48633 9.0625 7.49512 19.3457 12.0264 30.8496s8.19141 23.1816 10.9805 35.0332c12.5488 44.6191 30.6748 94.6406 54.3789 150.064
c23.7041 55.4258 52.4619 112.594 86.2744 171.504s72.1572 116.078 115.033 171.504c42.875 55.4238 89.7598 105.445 140.653 150.064c4.18262 4.18359 6.27441 7.66797 6.27441 10.457c0 4.88086 -3.66016 9.76172 -10.9805 14.6406
c-7.32031 4.88086 -14.9893 8.88867 -23.0068 12.0273c-8.01758 3.13672 -13.0713 4.70508 -15.1631 4.70508c-5.57715 0 -10.1094 -1.74219 -13.5947 -5.22852c-66.2314 -65.5332 -124.968 -136.645 -176.209 -213.334
c-51.2422 -76.6875 -94.4668 -153.725 -129.674 -231.111c-35.207 -77.3848 -62.5703 -149.193 -82.0908 -215.424c-6.27441 -22.3105 -11.6777 -39.041 -16.209 -50.1973c-4.53223 -11.1543 -9.06348 -19.5195 -13.5947 -25.0977
c-4.53223 -5.57617 -10.2842 -10.457 -17.2559 -14.6406c-4.18262 -2.0918 -6.27441 -5.22852 -6.27441 -9.41211c0 -6.9707 8.71484 -10.8047 26.1445 -11.502h5.22852zM393.333 290.85c-31.3721 139.434 -74.9453 255.686 -130.719 348.758
s-123.05 171.678 -201.83 235.818c-13.2461 11.1543 -24.0518 16.7305 -32.418 16.7305c-5.57715 0 -8.36621 -2.43945 -8.36621 -7.32031c0 -9.0625 6.97168 -20.5664 20.915 -34.5098c51.5908 -50.8926 94.8145 -103.006 129.673 -156.34
c34.8584 -53.332 63.0938 -104.748 84.7061 -154.248c21.6123 -49.498 37.9961 -94.1172 49.1504 -133.855s18.8232 -71.6348 23.0068 -95.6875c4.18262 -24.0508 6.27441 -36.7754 6.27441 -38.1699c0 -2.78711 -0.174805 -5.57617 -0.523438 -8.36523
s-0.522461 -5.57812 -0.522461 -8.36523c0 -6.27539 2.78906 -9.41211 8.36621 -9.41211c6.27441 0 13.4199 2.0918 21.4375 6.27344c8.01758 4.18359 15.1641 9.41211 21.4385 15.6875c6.27441 6.27344 9.41113 12.1992 9.41113 17.7773v5.22852z" />
</svg>
