<?xml version="1.0" standalone="no"?>
<!DOCTYPE svg PUBLIC "-//W3C//DTD SVG 1.1//EN" "http://www.w3.org/Graphics/SVG/1.1/DTD/svg11.dtd" >
<svg xmlns="http://www.w3.org/2000/svg" xmlns:xlink="http://www.w3.org/1999/xlink" version="1.1" viewBox="-10 0 1057 1000">
   <path fill="currentColor"
d="M456.717 934.497c2.21973 -14.7979 3.69922 -28.3008 4.43945 -40.5088c0.739258 -12.208 1.10938 -27.1904 1.10938 -44.9473l2.21973 -388.439l-341.826 18.8672c-7.39941 0.739258 -13.6885 1.29395 -18.8672 1.66406
c-5.17969 0.370117 -9.61816 0.554688 -13.3184 0.554688c-2.95898 0 -10.1729 -2.03418 -21.6416 -6.10352c-11.4678 -4.06934 -20.9014 -17.5723 -28.2998 -40.5088c-0.740234 -1.47949 -1.11035 -3.3291 -1.11035 -5.54883c0 -3.7002 1.84961 -5.5498 5.54883 -5.5498
c1.48047 0 2.58984 0.185547 3.33008 0.555664c0.739258 0.369141 1.47949 0.554688 2.21973 0.554688c7.39844 1.47949 15.167 2.58984 23.3057 3.3291c8.13867 0.740234 15.9082 1.11035 23.3066 1.11035h13.3184l354.034 -21.0869l1.11035 -321.85
c0 -9.61914 -0.740234 -19.2373 -2.21973 -28.8555c-1.48047 -9.61914 -3.33008 -18.127 -5.5498 -25.5264c0 -0.739258 -0.18457 -1.47949 -0.554688 -2.21973c-0.370117 -0.739258 -0.554688 -1.47949 -0.554688 -2.21973c0 -5.17871 4.06934 -7.76855 12.208 -7.76855
c10.3584 0 22.3818 3.14453 36.0693 9.43359s20.5322 14.2432 20.5322 23.8613l-2.21973 350.705l314.081 -17.7568c11.8379 -0.740234 22.751 -1.84961 32.7393 -3.33008c9.98828 -1.47949 20.1621 -3.69922 30.5205 -6.6582
c2.95898 -1.48047 5.91895 -2.21973 8.87891 -2.21973c3.69922 0 9.61816 2.21973 17.7568 6.6582c8.13867 4.43945 15.7227 10.1738 22.752 17.2031c7.02832 7.02832 10.543 14.6123 10.543 22.751s-4.80957 12.9482 -14.4277 14.4277l-422.844 23.3066l-2.21973 500.531
c0 14.0576 -5.91895 21.0869 -17.7578 21.0869c-8.87793 0 -18.8662 -4.06934 -29.9648 -12.208s-16.6475 -17.3877 -16.6475 -27.7461v-5.54883z" />
</svg>
