<?xml version="1.0" standalone="no"?>
<!DOCTYPE svg PUBLIC "-//W3C//DTD SVG 1.1//EN" "http://www.w3.org/Graphics/SVG/1.1/DTD/svg11.dtd" >
<svg xmlns="http://www.w3.org/2000/svg" xmlns:xlink="http://www.w3.org/1999/xlink" version="1.1" viewBox="-10 0 1072 1000">
   <path fill="currentColor"
d="M947.945 296.48l-655.684 38.4004c-0.767578 12.6025 -5.36523 93.9307 -6.89648 106.929c-1.53125 12.9961 -3.06445 25.7959 -4.59766 38.3994c-9.96094 71.6807 -26.8164 138.044 -50.5684 199.089c-23.7539 61.0469 -49.4219 114.02 -77.0039 158.918
c-27.584 44.8975 -53.0605 79.7539 -76.4297 104.565c-23.3691 24.8125 -39.2695 37.2188 -47.6973 37.2188c-4.59766 0 -6.89648 -2.75684 -6.89648 -8.27051c0 -3.93848 1.5332 -9.64941 4.59766 -17.1328c3.06641 -7.48242 8.42773 -16.3438 16.0898 -26.585
c42.1426 -60.6514 76.2383 -119.532 102.291 -176.639c26.0508 -57.1084 45.9707 -116.383 59.7637 -177.822c13.791 -61.4395 23.1777 -128.787 28.1582 -202.043s7.4707 -156.356 7.4707 -249.305c0 -11.0273 -0.576172 -21.8584 -1.72461 -32.4922
s-4.02148 -22.252 -8.61914 -34.8555c-2.29883 -4.72656 -3.44922 -9.05859 -3.44922 -12.9971c0 -5.51465 3.06641 -8.27051 9.19531 -8.27051c5.36328 0 13.4082 1.96875 24.1348 5.9082c10.7266 3.9375 24.9023 10.6328 42.5254 20.085l624.652 -39.5811
c10.7266 0 21.8379 3.54395 33.3301 10.6348c11.4941 7.08789 17.2402 15.7529 17.2402 25.9922c0 3.93945 -0.767578 7.4834 -2.29883 10.6348s-2.84375 6.28125 -3.44727 9.45215l-31.0332 163.052c10.7266 7.87793 18.1973 15.1631 22.4121 21.8594
c4.21484 6.69531 6.32227 12.4062 6.32227 17.1328c0 5.5127 -1.91602 9.64844 -5.74609 12.4053c-3.83203 2.75684 -8.42969 4.52832 -13.793 5.31738h-2.29883zM911.168 76.7139l-608.562 37.2188c-0.767578 36.2334 -1.72461 74.2393 -2.87305 114.018
c-1.15039 39.7793 0.191406 12.0127 -2.87305 53.7607l584.426 -36.0371z" />
</svg>
