<?xml version="1.0" standalone="no"?>
<!DOCTYPE svg PUBLIC "-//W3C//DTD SVG 1.1//EN" "http://www.w3.org/Graphics/SVG/1.1/DTD/svg11.dtd" >
<svg xmlns="http://www.w3.org/2000/svg" xmlns:xlink="http://www.w3.org/1999/xlink" version="1.1" viewBox="-10 0 1035 1000">
   <path fill="currentColor"
d="M788.209 894.591h-4.09766c-55.5312 -17.3701 -112.885 -43.4277 -172.059 -78.1709c-11.834 -6.75488 -21.3926 -10.1328 -28.6758 -10.1328c-9.10352 0 -13.6562 3.85938 -13.6562 11.5811c0 6.75391 6.37305 16.6475 19.1191 29.6758
c12.7441 13.0283 28.9023 27.0205 48.4746 41.9805c19.5742 14.959 40.0566 29.4346 61.4492 43.4287c21.3945 13.9912 41.6504 25.333 60.7676 34.0186c19.1191 8.68555 33.6836 13.0283 43.6973 13.0283c13.6562 0 25.9453 -5.79102 36.8711 -17.3711
c14.5645 -14.4756 23.8965 -31.123 27.9922 -49.9424c4.09766 -18.8184 7.9668 -36.4316 11.6074 -52.8379c11.834 -52.1143 22.3027 -109.778 31.4082 -172.988c9.10352 -63.2119 17.0684 -128.355 23.8965 -195.427c6.82812 -67.0742 12.0625 -132.457 15.7031 -196.151
c0.910156 -10.6172 2.73047 -19.543 5.46289 -26.7803c2.73047 -7.23828 4.0957 -13.752 4.0957 -19.543c0 -7.72168 -5.23438 -15.9229 -15.7031 -24.6094c-10.4688 -8.68555 -23.4414 -13.0283 -38.918 -13.0283h-5.46289l-594.01 39.085
c12.916 -19.3975 13.5684 -19.2959 30.4102 -51.627c16.8418 -32.3301 30.2695 -59.3516 40.2832 -81.0654c10.0137 -21.7148 15.0215 -33.5361 15.0215 -35.4668c0 -9.64941 -5.23633 -19.3008 -15.7051 -28.9512s-21.6211 -17.6123 -33.4551 -23.8857
s-20.0273 -9.41016 -24.5801 -9.41016c-6.37305 0 -9.55859 4.34375 -9.55859 13.0283v11.5811c0 24.126 -9.61523 56.9629 -27.3105 99.1611c-13.6562 32.5635 -28.6699 65.2344 -46.1133 94.332c-30.9531 51.6299 -63.6387 101.332 -87.5527 133.758
c-29.3594 39.8086 -68.959 89.3135 -88.7598 110.304c-12.7461 13.5117 -19.1172 24.126 -19.1172 31.8477c0 6.75391 4.0957 10.1328 12.2891 10.1328c9.10352 0 23.8965 -8.44531 44.3809 -25.333c20.4824 -16.8887 29.7598 -25.3789 55.252 -52.3994
c25.4883 -27.0205 30.7754 -32.3301 56.7207 -63.6953c14.7305 -17.8047 31.793 -38.2158 52.7324 -67.168l622.688 -40.5332c-5.46289 104.229 -14.3398 208.938 -26.6289 314.131c-12.2891 105.191 -31.6348 204.596 -58.0352 298.207
c-1.82031 4.8252 -5.46289 7.2373 -10.9238 7.2373z" />
</svg>
