<?xml version="1.0" standalone="no"?>
<!DOCTYPE svg PUBLIC "-//W3C//DTD SVG 1.1//EN" "http://www.w3.org/Graphics/SVG/1.1/DTD/svg11.dtd" >
<svg xmlns="http://www.w3.org/2000/svg" xmlns:xlink="http://www.w3.org/1999/xlink" version="1.1" viewBox="-10 0 1137 1000">
   <path fill="currentColor"
d="M268.416 145.369c-0.774414 50.3027 -2.70898 106.602 -5.80469 168.9c-3.0957 62.2969 -8.5127 122.078 -16.251 179.346c-6.19141 47.9805 -16.4453 94.8008 -30.7617 140.459c-14.3174 45.6602 -30.7617 88.416 -49.335 128.271s-36.9531 74.6797 -55.1396 104.475
c-18.1855 29.7949 -34.8242 53.2031 -49.915 70.2285s-26.5059 25.5391 -34.2441 25.5391c-4.64355 0 -6.96484 -3.0957 -6.96484 -9.28711c0 -3.86914 0.966797 -9.0918 2.90137 -15.6699c1.93555 -6.57812 5.61133 -14.125 11.0283 -22.6367
c48.7549 -81.2578 85.3203 -163.289 109.697 -246.094c24.3779 -82.8066 40.4355 -165.998 48.1748 -249.578c7.73828 -83.5781 11.6074 -167.545 11.6074 -251.898c0 -30.1797 -2.70801 -59.2012 -8.125 -87.0605c-0.774414 -2.32227 -1.16113 -4.64453 -1.16113 -6.96484
v-5.80469c0 -6.19141 2.70898 -9.28711 8.12598 -9.28711c4.64258 0 12.5752 2.32227 23.7969 6.96484c11.2207 4.64453 26.5049 12.3828 45.8525 23.2168l580.411 -37.1465c13.9297 -1.54688 25.5381 -3.0957 34.8242 -4.64258
c9.28711 -1.54883 18.96 -3.86914 29.0205 -6.96484c4.64355 -1.54883 8.5127 -2.32227 11.6084 -2.32227s8.89941 1.93555 17.4121 5.80469s16.4453 9.28711 23.7969 16.252c7.35254 6.96484 11.0283 14.7031 11.0283 23.2148c0 11.6094 -5.80469 18.1875 -17.4131 19.7344
z" />
</svg>
