<?xml version="1.0" standalone="no"?>
<!DOCTYPE svg PUBLIC "-//W3C//DTD SVG 1.1//EN" "http://www.w3.org/Graphics/SVG/1.1/DTD/svg11.dtd" >
<svg xmlns="http://www.w3.org/2000/svg" xmlns:xlink="http://www.w3.org/1999/xlink" version="1.1" viewBox="-10 0 1017 1000">
   <path fill="currentColor"
d="M508.366 945.49c0 11.8516 -5.22949 17.7773 -15.6865 17.7773c-1.39453 0 -5.92578 -1.21973 -13.5947 -3.66016c-7.66895 -2.43945 -14.8154 -6.44824 -21.4385 -12.0254c-6.62305 -5.57812 -9.93457 -12.8975 -9.93457 -21.9609
c0 -1.39453 0.174805 -2.78906 0.523438 -4.18359c0.348633 -1.39355 0.522461 -2.43945 0.522461 -3.13672c2.78906 -20.915 4.70605 -40.7842 5.75195 -59.6084c1.0459 -18.8232 1.56836 -37.6465 1.56836 -56.4697v-26.667
c0 -17.7783 0.174805 -41.1328 0.522461 -70.0654c0.348633 -28.9326 0.697266 -60.3047 1.0459 -94.1172c0.348633 -33.8135 0.697266 -66.7539 1.0459 -98.8242c0.348633 -32.0693 0.697266 -60.4795 1.0459 -85.2285s0.522461 -42.0039 0.522461 -51.7646
c-28.583 52.9844 -64.3135 106.667 -107.189 161.046c-42.875 54.3789 -89.2373 105.098 -139.085 152.156c-49.8467 47.0596 -99.8691 86.623 -150.065 118.693l-5.22852 3.13672c-13.2461 6.97168 -23.0068 10.458 -29.2812 10.458s-9.41113 -2.44043 -9.41113 -7.32031
c0 -8.36621 11.1543 -21.2637 33.4639 -38.6934c66.2305 -49.498 130.545 -109.106 192.941 -178.823s124.27 -155.12 185.621 -256.209l-244.706 12.5488c-6.27441 0.697266 -11.8525 1.0459 -16.7324 1.0459h-12.5488c-2.0918 0 -6.27441 -0.522461 -12.5488 -1.56836
s-12.8975 -4.35742 -19.8691 -9.93457s-12.5498 -14.6406 -16.7324 -27.1895c-0.697266 -1.39453 -1.0459 -3.48633 -1.0459 -6.27441c0 -3.48633 1.74316 -5.22949 5.22852 -5.22949c1.39453 0 2.44043 0.174805 3.1377 0.523438s1.39453 0.522461 2.0918 0.522461
c7.66797 2.0918 15.1631 3.48633 22.4834 4.18359c7.32031 0.696289 14.4658 1.04492 21.4375 1.04492h12.5488l280.262 -15.6855v-189.281c0 -18.8232 -2.78809 -37.9961 -8.36621 -57.5166v-3.13672c0 -4.88086 3.48633 -7.32031 10.458 -7.32031
c2.78809 0 8.36621 1.21973 16.7314 3.66016c8.36621 2.43945 16.3838 6.09961 24.0527 10.9805c7.66895 4.87988 11.5029 11.8516 11.5029 20.915v218.562l242.615 -13.5947c11.1543 -0.697266 21.4375 -1.74316 30.8496 -3.1377
c9.41113 -1.39355 18.9971 -3.48535 28.7578 -6.27441c4.18262 -1.39355 7.32031 -2.09082 9.41211 -2.09082c10.457 0 21.0889 4.87988 31.8945 14.6406c10.8066 9.75977 16.21 17.7773 16.21 24.0518c0 7.66895 -4.88086 12.2002 -14.6406 13.5947l-330.458 16.7324
c43.2246 57.8643 87.1465 111.547 131.765 161.046c44.6191 49.499 92.5498 94.4658 143.791 134.901c51.2422 40.4355 107.887 76.6885 169.935 108.759c1.39453 0.696289 3.48633 2.26562 6.27441 4.70508c2.78906 2.44043 4.18359 5.40332 4.18359 8.88965
c0 2.09082 -2.61426 5.92578 -7.84375 11.5029c-5.22852 5.57715 -11.3291 10.8057 -18.3008 15.6865c-6.97168 4.87988 -13.2461 7.32031 -18.8232 7.32031c-4.87988 0 -9.06348 -1.39453 -12.5488 -4.18359c-80.1738 -48.1045 -156.34 -108.061 -228.497 -179.869
c-72.1562 -71.8086 -134.728 -148.148 -187.712 -229.02c0.697266 9.06348 1.21973 27.1895 1.56836 54.3789s0.523438 59.4336 0.523438 96.7324v117.646v119.216v183.007z" />
</svg>
