<?xml version="1.0" standalone="no"?>
<!DOCTYPE svg PUBLIC "-//W3C//DTD SVG 1.1//EN" "http://www.w3.org/Graphics/SVG/1.1/DTD/svg11.dtd" >
<svg xmlns="http://www.w3.org/2000/svg" xmlns:xlink="http://www.w3.org/1999/xlink" version="1.1" viewBox="-10 0 1031 1000">
   <path fill="currentColor"
d="M908.031 664.066c0 30.9023 -1.62695 59.9746 -4.88086 87.2168c-3.25195 27.2432 -5.69141 54.6895 -7.31836 82.3389c-0.8125 34.9678 -13.6211 63.4307 -38.4238 85.3867c-24.8027 21.957 -58.3477 35.7822 -100.635 41.4746
c-45.541 5.69238 -91.8945 10.3682 -139.061 14.0273c-47.166 3.66016 -94.334 5.48926 -141.5 5.48926c-78.8809 0 -155.73 -4.87891 -230.545 -14.6377c-35.7832 -4.87891 -66.4805 -18.5 -92.0977 -40.8643c-25.6152 -22.3633 -38.8301 -59.9746 -39.6445 -112.833
l-6.09961 -717.256c0 -21.9561 -4.87891 -42.6934 -14.6367 -62.2109c-0.8125 -1.62598 -1.2207 -3.25293 -1.2207 -4.87891c0 -4.87891 4.47266 -7.31934 13.418 -7.31934c15.4512 0 30.6992 3.25293 45.7441 9.75879s22.5664 14.2314 22.5664 23.1768l3.66016 744.092
c0 36.5947 6.91211 62.4141 20.7363 77.458c13.8242 15.0449 37.002 25.0068 69.5293 29.8857c33.3418 4.87988 67.9043 8.33594 103.686 10.3691c35.7812 2.03223 71.9688 3.04883 108.564 3.04883c44.7266 0 88.8438 -1.62598 132.35 -4.87891
c43.5078 -3.25293 85.1855 -7.72559 125.033 -13.418c21.1426 -3.25293 38.4238 -7.52246 51.8418 -12.8086c13.418 -5.28516 24.3965 -15.4512 32.9355 -30.4951c8.53906 -15.0449 16.0605 -38.0176 22.5664 -68.9199s13.0117 -73.1895 19.5176 -126.861
c1.62695 -17.0781 4.87891 -29.8857 9.75781 -38.4248s9.75977 -12.8076 14.6387 -12.8076s9.35156 4.06543 13.418 12.1982c4.06641 8.13184 6.09961 20.3301 6.09961 36.5938v6.09961z" />
</svg>
