<?xml version="1.0" standalone="no"?>
<!DOCTYPE svg PUBLIC "-//W3C//DTD SVG 1.1//EN" "http://www.w3.org/Graphics/SVG/1.1/DTD/svg11.dtd" >
<svg xmlns="http://www.w3.org/2000/svg" xmlns:xlink="http://www.w3.org/1999/xlink" version="1.1" viewBox="-10 0 1110 1000">
   <path fill="currentColor"
d="M480.076 122.038l-380.378 22.9434h-14.4902c-11.2705 0 -23.1445 -2.21387 -35.623 -6.6416c-12.4775 -4.42773 -21.9365 -19.1191 -28.377 -44.0752c-0.804688 -1.61035 -1.20801 -3.62305 -1.20801 -6.03809c0 -3.21973 2.0127 -4.83008 6.03809 -4.83008
c0.804688 0 1.61035 0.201172 2.41504 0.603516c0.805664 0.40332 1.61035 0.604492 2.41504 0.604492c7.24512 1.60938 14.8936 3.01855 22.9434 4.22656c8.05078 1.20703 16.1006 1.81055 24.1514 1.81055h7.24512l792.151 -49.5088
c9.66016 -0.805664 17.9111 -1.61035 24.7539 -2.41504c6.84277 -0.805664 13.4844 -2.41504 19.9248 -4.83105c4.83008 -1.60938 8.05078 -2.41504 9.66016 -2.41504c4.83008 0 11.0693 2.41504 18.7178 7.24609c7.64746 4.83008 14.4902 10.8672 20.5283 18.1133
c6.03711 7.24512 9.05566 14.0879 9.05566 20.5273c0 8.85547 -6.84277 14.0889 -20.5283 15.6982l-414.188 25.3584l3.62305 755.925c0 6.44043 0.201172 12.8809 0.603516 19.3213c0.402344 6.43945 0.603516 12.8799 0.603516 19.3203
c0 10.4658 -3.21973 22.3398 -9.66016 35.623c-6.44043 13.2822 -20.126 19.9238 -41.0566 19.9238c-15.2949 0 -33.4082 -5.63477 -54.3398 -16.9053c-68.4277 -35.4219 -118.943 -64.2012 -151.547 -86.3398c-32.6035 -22.1377 -48.9053 -39.6475 -48.9053 -52.5283
c0 -7.24512 4.42773 -10.8682 13.2832 -10.8682c8.85449 0 19.7227 3.62305 32.6035 10.8682c28.1758 15.2959 59.5723 29.7861 94.1885 43.4717s67.623 24.9561 99.0186 33.8115z" />
</svg>
