<?xml version="1.0" standalone="no"?>
<!DOCTYPE svg PUBLIC "-//W3C//DTD SVG 1.1//EN" "http://www.w3.org/Graphics/SVG/1.1/DTD/svg11.dtd" >
<svg xmlns="http://www.w3.org/2000/svg" xmlns:xlink="http://www.w3.org/1999/xlink" version="1.1" viewBox="-10 0 1045 1000">
   <path fill="currentColor"
d="M525.15 626.287l1.07031 300.736c0 4.28125 -1.42676 8.20508 -4.28125 11.7734c-2.85352 3.56641 -7.13477 5.34961 -12.8428 5.34961c-3.56738 0 -8.91797 -1.7832 -16.0537 -5.34961c-10.7021 -7.13477 -18.0156 -12.8438 -21.9395 -17.125
s-5.88574 -8.91797 -5.88574 -13.9121c0 -1.42773 0.177734 -2.67578 0.53418 -3.74609c0.357422 -1.07031 0.535156 -1.96289 0.535156 -2.67578c1.42773 -10.7031 2.49805 -23.0098 3.21094 -36.9238c0.713867 -13.9121 1.07031 -24.0801 1.07031 -30.5l1.07031 -205.486
l-376.723 16.0547h-16.0537c-9.98828 0 -20.5127 -1.96289 -31.5713 -5.88672c-11.0596 -3.92383 -19.7998 -15.875 -26.2207 -35.8535c-0.713867 -1.42578 -1.07031 -3.21094 -1.07031 -5.35156c0 -2.85352 1.7832 -4.2793 5.35156 -4.2793h4.28027
c7.13477 2.13867 14.627 3.56641 22.4746 4.2793c7.84863 0.714844 15.3408 1.07031 22.4756 1.07031h11.7725l385.284 -18.1934v-134.85l-176.589 8.5625l3.21094 31.0371v3.20898c0 8.5625 -3.92383 12.8438 -11.7725 12.8438
c-2.85449 0 -7.84863 -0.892578 -14.9834 -2.67578s-13.7344 -5.17188 -19.7988 -10.168c-6.06543 -4.99414 -9.09766 -11.4141 -9.09766 -19.2637v-14.9824v-15.5195c0 -5.34961 -0.356445 -11.2363 -1.07031 -17.6582l-22.4746 -281.471
c-1.42676 -18.5508 -6.42188 -35.6758 -14.9834 -51.373c-3.56738 -5.70703 -5.35059 -10.3438 -5.35059 -13.9121s3.20996 -5.35156 9.63184 -5.35156c9.98828 0 30.6797 6.06445 62.0732 18.1953l474.114 -31.0371h6.4209c7.84863 0 16.4102 2.85352 25.6855 8.56055
c8.5625 6.42188 12.8428 13.5566 12.8428 21.4062c0 4.99414 -1.07031 9.45312 -3.21094 13.377c-2.13965 3.92383 -3.56738 7.3125 -4.28027 10.168l-27.8262 271.838c18.5508 16.4121 27.8262 28.541 27.8262 36.3887c0 7.13477 -7.84863 11.416 -23.5449 12.8438
l-233.312 11.7715v136.99l338.194 -16.0527c12.1289 -0.714844 22.6533 -1.78516 31.5713 -3.21094c8.91895 -1.42773 18.373 -3.56836 28.3613 -6.42188c4.28125 -1.42773 7.49219 -2.14062 9.63184 -2.14062c5.70801 0 12.3086 2.49805 19.7998 7.49219
s13.9131 10.8809 19.2646 17.6582c5.35059 6.7793 8.02637 12.3086 8.02637 16.5898c0 7.13477 -4.6377 11.4141 -13.9131 12.8418zM727.425 102.943l-460.201 29.9668l9.63281 110.234l440.937 -27.8262zM714.582 260.268l-433.445 25.6855l9.63281 122.006
l413.11 -23.5449z" />
</svg>
