<?xml version="1.0" standalone="no"?>
<!DOCTYPE svg PUBLIC "-//W3C//DTD SVG 1.1//EN" "http://www.w3.org/Graphics/SVG/1.1/DTD/svg11.dtd" >
<svg xmlns="http://www.w3.org/2000/svg" xmlns:xlink="http://www.w3.org/1999/xlink" version="1.1" viewBox="-10 0 1007 1000">
   <path fill="currentColor"
d="M181.867 901.103c2.03613 -18.3242 3.05371 -33.0859 3.05371 -44.2842s0.338867 -26.2988 1.01758 -45.3018l6.1084 -412.302c-10.8584 16.2891 -23.9238 34.9531 -39.1943 55.9922c-15.2695 21.0391 -31.0498 41.2295 -47.3379 60.5723
s-31.3887 35.4619 -45.3018 48.3564c-13.9131 12.8955 -24.6025 19.3428 -32.0684 19.3428c-5.42969 0 -8.14453 -2.71484 -8.14453 -8.14453c0 -6.78711 4.75098 -15.9492 14.2529 -27.4863c32.5771 -39.3643 63.7959 -82.7998 93.6582 -130.308
s57.8584 -96.8828 83.9873 -148.123c26.1299 -51.2412 49.374 -101.973 69.7354 -152.195c3.39355 -7.46582 6.10742 -15.4404 8.14355 -23.9238s3.39355 -18.833 4.07227 -31.0498c0 -4.75098 3.05469 -7.12598 9.16211 -7.12598c6.1084 0 13.2344 2.54492 21.3789 7.63477
c8.14453 5.09082 15.4404 10.8594 21.8877 17.3066s9.6709 12.3857 9.6709 17.8154c0 3.39355 -3.90234 13.4043 -11.707 30.0322s-17.6455 36.4795 -29.5225 59.5547s-24.2637 46.4893 -37.1582 70.2432c-12.8955 23.7549 -24.7725 44.7939 -35.6309 63.1182
l-2.03613 608.78c0 10.1807 -3.7334 15.2705 -11.1982 15.2705c-4.07227 0 -9.84082 -1.69629 -17.3066 -5.08984s-14.2529 -8.14453 -20.3604 -14.2529c-6.1084 -6.10742 -9.16211 -12.8945 -9.16211 -20.3604v-4.07227zM627.763 450.116
c32.5771 90.2656 78.8975 173.065 138.961 248.399s129.12 142.185 207.169 200.551c4.07129 2.71484 6.10742 5.76953 6.10742 9.16309c0 1.35742 -2.54492 4.75 -7.63477 10.1797s-11.1982 10.5195 -18.3242 15.2705c-7.12695 4.75098 -13.4043 7.12598 -18.834 7.12598
c-4.07227 0 -7.80469 -1.69629 -11.1982 -5.08984c-78.7275 -67.1895 -147.274 -140.148 -205.642 -218.876s-101.803 -164.921 -130.308 -258.579c-10.8584 69.2256 -28.335 130.308 -52.4277 183.245c-24.0938 52.9375 -50.9014 98.5791 -80.4248 136.925
c-29.5225 38.3457 -58.0273 70.0742 -85.5146 95.1855c-27.4863 25.1113 -50.0527 44.4541 -67.6982 58.0273c-9.50195 7.46582 -17.9854 11.1982 -25.4512 11.1982c-5.42871 0 -8.14355 -2.71484 -8.14355 -8.14355c0 -8.82324 6.10742 -18.3252 18.3242 -28.5049
c54.9736 -49.5439 99.0879 -99.9365 132.344 -151.178c33.2559 -51.2402 59.2148 -102.142 77.8789 -152.704c18.6641 -50.5615 32.4072 -99.2578 41.2305 -146.087l-155.759 9.16211c-5.42969 0.678711 -10.6895 1.18848 -15.7793 1.52734
c-5.08984 0.339844 -9.33203 0.508789 -12.7256 0.508789c-11.5371 0 -21.3779 -3.22363 -29.5225 -9.6709s-14.252 -13.4043 -18.3242 -20.8701c-4.07227 -7.46484 -6.1084 -12.8945 -6.1084 -16.2881c0 -4.07227 2.375 -6.1084 7.12598 -6.1084
c0.678711 0 1.52734 0.169922 2.54492 0.509766c1.01855 0.338867 1.86719 0.508789 2.54492 0.508789c7.46582 1.35742 14.9316 2.375 22.3975 3.05371c7.46484 0.678711 14.5918 1.01855 21.3779 1.01855c3.39355 0 6.61719 -0.169922 9.67188 -0.509766
c3.05371 -0.338867 5.93848 -0.508789 8.65332 -0.508789l172.046 -9.16211c7.46582 -52.2588 11.877 -103.499 13.2344 -153.722s2.03613 -97.0527 2.03613 -140.488c0 -6.78711 -0.678711 -14.083 -2.03613 -21.8877s-4.41113 -16.7969 -9.16211 -26.9775
c-0.678711 -1.35742 -1.01758 -2.71484 -1.01758 -4.07227c0 -4.07227 3.73242 -6.1084 11.1982 -6.1084c2.03613 0 7.97461 1.18848 17.8154 3.56348s19.1729 5.93848 27.9961 10.6895c8.82227 4.75098 13.2334 11.5371 13.2334 20.3604
c0 51.5801 -1.52637 104.009 -4.58105 157.285c-3.05371 53.2773 -8.31348 106.045 -15.7793 158.304l202.588 -11.1982c13.5732 -0.678711 25.1113 -2.20605 34.6133 -4.58105c9.50098 -2.37598 18.3242 -5.26074 26.4678 -8.65332
c4.07227 -2.03613 7.46582 -3.05469 10.1807 -3.05469c6.78711 0 13.9131 2.71484 21.3789 8.14453c7.46484 5.42969 13.9131 11.3682 19.3418 17.8154c5.42969 6.44727 8.14453 12.0469 8.14453 16.7979c0 6.78613 -5.08984 10.8584 -15.2705 12.2158z" />
</svg>
