<?xml version="1.0" standalone="no"?>
<!DOCTYPE svg PUBLIC "-//W3C//DTD SVG 1.1//EN" "http://www.w3.org/Graphics/SVG/1.1/DTD/svg11.dtd" >
<svg xmlns="http://www.w3.org/2000/svg" xmlns:xlink="http://www.w3.org/1999/xlink" version="1.1" viewBox="-10 0 1061 1000">
   <path fill="currentColor"
d="M486.578 287.383c-28.6367 42.9531 -59.7773 83.4004 -93.4238 121.342c-33.6465 37.9424 -65.8613 71.4102 -96.6445 100.403s-57.4492 51.7227 -80 68.1875c-22.5508 16.4658 -37.0469 24.6982 -43.4902 24.6982c-6.44141 0 -9.66406 -2.50586 -9.66406 -7.5166
c0 -8.59082 7.875 -19.6875 23.625 -33.2891c82.3262 -73.7354 151.768 -152.304 208.322 -235.704s102.014 -166.265 136.375 -248.591c2.14844 -5.72754 3.9375 -11.9912 5.36914 -18.792s2.14844 -13.7812 2.14844 -20.9395v-6.44336
c0 -7.15918 3.9375 -10.7383 11.8105 -10.7383c6.44336 0 14.498 1.79004 24.1621 5.36914s18.2539 8.23242 25.7715 13.96c7.51758 5.72656 11.2754 11.8115 11.2754 18.2549c0 0.71582 -0.179688 1.25293 -0.537109 1.61035
c-0.357422 0.358398 -0.537109 0.895508 -0.537109 1.61133c-27.2031 61.5654 -57.2695 119.194 -90.2012 172.886l269.531 -21.4766c3.57812 0 6.62109 -0.178711 9.12695 -0.537109c2.50586 -0.357422 4.83203 -0.537109 6.98047 -0.537109
c10.0215 0 19.6855 3.75879 28.9922 11.2754s13.959 16.2861 13.959 26.3086c0 5.72754 -1.60938 10.918 -4.83203 15.5713c-3.2207 4.65234 -5.54688 7.69531 -6.97852 9.12695c-35.7949 72.3047 -71.2305 137.808 -106.309 196.51
c-35.0781 58.7031 -76.2422 115.615 -123.49 170.738c-50.1133 58.7031 -100.402 109.53 -150.873 152.483c-50.4688 42.9531 -97.1816 78.2109 -140.135 105.772s-78.3887 47.9639 -106.309 61.208c-27.9199 13.2432 -44.0254 19.8652 -48.3223 19.8652
c-7.875 0 -11.8105 -3.22168 -11.8105 -9.66406c0 -4.2959 2.32617 -9.48535 6.97852 -15.5703c4.6543 -6.08496 11.9922 -11.9912 22.0137 -17.7188c80.8945 -48.6797 150.693 -98.4336 209.396 -149.262c58.7012 -50.8271 112.035 -104.519 160 -161.073
c-21.4766 -29.3516 -44.7422 -57.4502 -69.7988 -84.2959s-52.2598 -53.1543 -81.6113 -78.9258c-5.72656 -4.2959 -8.58984 -9.30664 -8.58984 -15.0342c0 -6.44238 3.2207 -12.1699 9.66406 -17.1807c5.72656 -5.72754 11.0957 -8.59082 16.1074 -8.59082
c7.1582 0 27.2031 14.1387 60.1348 42.416c32.9297 28.2773 70.1562 67.1143 111.678 116.511c36.5098 -47.249 68.9043 -95.5713 97.1816 -144.967c28.2773 -49.3965 57.4492 -106.309 87.5156 -170.738z" />
</svg>
