<?xml version="1.0" standalone="no"?>
<!DOCTYPE svg PUBLIC "-//W3C//DTD SVG 1.1//EN" "http://www.w3.org/Graphics/SVG/1.1/DTD/svg11.dtd" >
<svg xmlns="http://www.w3.org/2000/svg" xmlns:xlink="http://www.w3.org/1999/xlink" version="1.1" viewBox="-10 0 1148 1000">
   <path fill="currentColor"
d="M612.831 223.221c-5.81738 0 -12.8828 -3.3252 -21.1943 -9.97363c-27.4287 -27.4287 -56.7275 -53.6113 -87.8965 -78.5459c-31.1689 -24.9355 -60.4678 -47.377 -87.8955 -67.3252c-7.48047 -6.64844 -11.2207 -12.8828 -11.2207 -18.7012
c0 -7.48047 2.70117 -14.1299 8.10352 -19.9473c5.40234 -5.81836 11.0127 -8.72754 16.8311 -8.72754c6.64941 0 17.4551 4.57129 32.416 13.7139c14.9609 9.14355 31.792 20.5713 50.4932 34.2861c18.7012 13.7139 36.7793 27.6357 54.2334 41.7656
c17.4551 14.1299 32.208 25.9746 44.2598 35.5332c12.0527 9.55859 18.9092 15.1689 20.5713 16.8311c8.3125 7.48047 12.4678 14.9609 12.4678 22.4414s-3.32422 15.792 -9.97363 24.9346c-6.64941 9.14355 -13.7148 13.7148 -21.1953 13.7148zM533.039 468.831
c-4.9873 0 -11.6367 -3.3252 -19.9482 -9.97363c-25.7656 -22.4424 -53.1943 -44.8838 -82.2852 -67.3252s-57.3506 -43.2207 -84.7793 -62.3379c-9.14258 -6.64941 -13.7148 -13.2988 -13.7148 -19.9473c0 -7.48145 2.49414 -14.5459 7.48047 -21.1953
c4.9873 -6.64941 10.3896 -9.97363 16.208 -9.97363c4.9873 0 14.5459 4.15527 28.6758 12.4668c14.1299 8.3125 30.7529 18.9092 49.8701 31.793c19.1162 12.8828 38.8564 26.8047 59.2207 41.7656c20.3633 14.9609 38.8574 29.0908 55.4805 42.3896
c9.97363 7.48047 14.9609 15.377 14.9609 23.6885c0 4.15625 -2.90918 11.6367 -8.72754 22.4414c-5.81836 10.8057 -13.2988 16.208 -22.4414 16.208zM397.144 980c-10.8057 -1.66211 -21.6113 -4.9873 -32.416 -9.97461
c-10.8057 -4.98633 -19.9482 -10.3896 -27.4287 -16.207c-3.32422 -3.3252 -4.9873 -6.23438 -4.9873 -8.72754c0 -4.15625 2.49414 -7.48047 7.48047 -9.97363c16.624 -9.14355 31.1689 -22.4424 43.6367 -39.8965c24.9355 -34.0781 51.5322 -71.2725 79.792 -111.585
c28.2598 -40.3115 55.8965 -81.6621 82.9092 -124.052c27.0137 -42.3896 51.7402 -82.7012 74.1816 -120.935c15.793 -26.5977 28.6758 -39.8965 38.6494 -39.8965c5.81836 0 8.72754 4.57129 8.72754 13.7148c0 4.15527 -2.90918 14.1299 -8.72754 29.9219
c-5.81738 15.792 -17.0391 40.1035 -33.6621 72.9346s-39.8965 76.2598 -69.8184 130.286c-29.9219 54.0254 -69.4023 120.935 -118.441 200.728c-4.9873 9.14258 -9.97363 17.0381 -14.9609 23.6875s-11.6367 9.97461 -19.9482 9.97461h-4.98633z" />
</svg>
