<?xml version="1.0" standalone="no"?>
<!DOCTYPE svg PUBLIC "-//W3C//DTD SVG 1.1//EN" "http://www.w3.org/Graphics/SVG/1.1/DTD/svg11.dtd" >
<svg xmlns="http://www.w3.org/2000/svg" xmlns:xlink="http://www.w3.org/1999/xlink" version="1.1" viewBox="-10 0 925 1000">
   <path fill="currentColor"
d="M282.641 89.2559c0 -19.1787 -2.83984 -38.7119 -8.52344 -58.6016v-3.19629c0 -4.97168 3.90625 -7.45801 11.7207 -7.45801c12.0762 0 24.1504 3.55176 36.2266 10.6543c12.0742 7.10352 18.1133 15.6279 18.1133 25.5723v333.496
c4.97266 -7.81348 10.2988 -11.7207 15.9824 -11.7207c4.26172 0 18.1133 4.97266 41.5527 14.917c23.4414 9.94434 52.9199 23.4404 88.4355 40.4883s72.9863 36.582 112.408 58.6016c39.4238 22.0195 77.248 45.4609 113.475 70.3223
c9.23438 6.39258 13.8516 13.8506 13.8516 22.375c0 4.97168 -2.13086 12.7852 -6.39453 23.4404c-4.26172 10.6543 -10.2988 15.9824 -18.1133 15.9824c-2.83984 0 -6.03711 -0.887695 -9.58789 -2.66406c-3.55273 -1.77539 -7.10352 -4.08398 -10.6562 -6.92578
c-47.5898 -33.3848 -100.688 -66.415 -159.289 -99.0898s-115.605 -61.4424 -171.01 -86.3037c-4.26172 -2.13086 -7.81445 -4.61719 -10.6543 -7.45898l-1.06641 540.2c0 12.0752 -5.32617 18.1133 -15.9824 18.1133c-9.23438 0 -19.5332 -3.90723 -30.8984 -11.7207
s-17.0469 -16.6924 -17.0469 -26.6367c0 -1.4209 0.177734 -2.8418 0.53125 -4.26172c0.355469 -1.4209 0.533203 -2.48633 0.533203 -3.19629c2.8418 -21.3105 4.79492 -41.5547 5.86133 -60.7334c1.06445 -19.1787 1.59766 -38.3574 1.59766 -57.5352z" />
</svg>
