<?xml version="1.0" standalone="no"?>
<!DOCTYPE svg PUBLIC "-//W3C//DTD SVG 1.1//EN" "http://www.w3.org/Graphics/SVG/1.1/DTD/svg11.dtd" >
<svg xmlns="http://www.w3.org/2000/svg" xmlns:xlink="http://www.w3.org/1999/xlink" version="1.1" viewBox="-10 0 1051 1000">
   <path fill="currentColor"
d="M325.072 55.418h0.579102l303.493 -18.8359c39.5947 -2.45703 61.1504 -9.5127 82.752 -16.582c20.5078 5.66602 62.7148 38.4521 62.7148 52.5186c0 7.27441 -7.72266 8.35449 -14.1553 8.78125l-408.893 27.1211c-9.30371 0.0878906 -17.5908 2.08594 -21.2695 2.08594
h-17.7559c-3.875 0 -12.1602 -1.28711 -23.0049 -4.47754c-6.69727 -1.96973 -17.8438 -8.80566 -31.3125 -21.9658c-8.08691 -13.6133 -14.1348 -24.4541 -17.9961 -32.3467c16.6533 3.90137 34.5078 5.79102 53.5107 5.79102c15.7754 0 18.3076 -2.08984 31.3369 -2.08984
zM233.153 302.375h0.504883l581.655 -31.4971c4.88867 -1.63086 7.35645 -1.92871 13.2275 -1.92871c18.1748 0 29.5254 5.32617 38.2402 15.4951c11.915 13.9004 14.3721 22.4932 14.3721 22.4932c0 14.7441 -14.1367 19.3477 -23.7012 43.167
c-119.053 287.104 -244.134 483.207 -342.255 609.947c-11.8311 15.3799 -21.332 19.7256 -28.6641 19.9482c-19.0635 -4.30566 -34.6621 -10.3115 -48.0664 -18.9834c-7.49902 -4.85254 -9.18359 -8.32324 -9.31738 -14.0195
c0.575195 -3.10254 1.54688 -5.03613 2.37402 -6.19141c227.017 -275.763 318.957 -496.71 360.972 -601.748l3.37891 -8.44531l-563.305 35.2061h-18.2197c-34.7354 0 -53.8398 -7.14746 -60.0977 -13.4053c-13.8789 -13.8799 -26.9961 -29.2979 -35.4053 -56.7793
c55.2588 8.58691 57.873 8.8291 76.7012 8.8291c18.7627 0 23.9834 -2.08789 37.6055 -2.08789z" />
</svg>
