<?xml version="1.0" standalone="no"?>
<!DOCTYPE svg PUBLIC "-//W3C//DTD SVG 1.1//EN" "http://www.w3.org/Graphics/SVG/1.1/DTD/svg11.dtd" >
<svg xmlns="http://www.w3.org/2000/svg" xmlns:xlink="http://www.w3.org/1999/xlink" version="1.1" viewBox="-10 0 1074 1000">
   <path fill="currentColor"
d="M569.384 492.038c-37.915 53.0811 -76.209 98.0098 -114.882 134.787s-71.8477 64.6445 -99.5254 83.6016c-27.6777 18.958 -45.3086 28.4365 -52.8916 28.4365c-4.5498 0 -6.82422 -1.89551 -6.82422 -5.6875c0 -7.58301 6.44531 -16.6826 19.3359 -27.2988
c50.0479 -42.4639 93.8389 -86.8242 131.375 -133.08c37.5352 -46.2559 74.123 -97.8203 109.763 -154.692c-5.30762 -21.9902 -11.5635 -43.791 -18.7676 -65.4023s-14.9766 -43.0332 -23.3174 -64.2656c-45.498 39.4316 -84.3604 68.626 -116.588 87.583
s-52.8906 28.4355 -61.9902 28.4355c-6.06641 0 -9.09961 -1.89551 -9.09961 -5.68652c0 -7.58301 7.58301 -16.6826 22.749 -27.2988c25.0234 -19.7158 49.668 -40.1895 73.9336 -61.4219c24.2646 -21.2324 47.7725 -43.6016 70.5205 -67.1094
c-25.7812 -53.8389 -56.8721 -103.507 -93.2695 -149.004c-3.0332 -3.0332 -4.5498 -6.8252 -4.5498 -11.375c0 -6.06641 3.79102 -11.374 11.374 -15.9238c7.58301 -3.79199 13.2705 -5.6875 17.0615 -5.6875c6.8252 0 12.5117 3.0332 17.0615 9.09961
c16.6826 21.2324 32.418 43.0332 47.2041 65.4033c14.7871 22.3691 28.626 45.6865 41.5166 69.9521c19.7158 -21.9902 38.1045 -43.9814 55.166 -65.9717s32.7959 -43.9805 47.2041 -65.9717c4.5498 -6.82422 7.39258 -14.0283 8.53027 -21.6113
s1.70605 -14.7861 1.70605 -21.6113c0 -6.82422 2.6543 -10.2373 7.96191 -10.2373c3.79199 0 10.0479 2.6543 18.7686 7.96289c8.71973 5.30762 16.8721 11.7529 24.4551 19.3359s11.374 15.166 11.374 22.749c0 1.5166 -0.758789 3.79102 -2.27539 6.82422
c-24.2646 33.3652 -48.7197 64.6445 -73.3643 93.8389s-50.2373 56.3037 -76.7773 81.3271c28.8154 59.9053 49.8574 126.636 63.1279 200.189c13.2705 73.5547 19.9053 157.726 19.9053 252.513c0 60.6631 -0.948242 106.919 -2.84375 138.768
c-1.89551 31.8477 -4.36035 54.5967 -7.39355 68.2461s-6.44531 23.8867 -10.2363 30.7109c-7.58301 13.6494 -14.9766 23.3174 -22.1807 29.0049s-14.9766 8.53027 -23.3174 8.53027c-9.09961 0 -22.9385 -5.30762 -41.5166 -15.9238s-38.1045 -23.5068 -58.5781 -38.6729
s-37.7256 -29.5732 -51.7539 -43.2227s-21.042 -23.8867 -21.042 -30.7109c0 -4.5498 3.0332 -6.82422 9.09961 -6.82422c7.58203 0 17.8193 3.79102 30.71 11.374c17.4414 9.85742 36.209 19.5264 56.3037 29.0049s39.6211 18.0088 58.5781 25.5918
c1.5166 0.758789 3.0332 1.1377 4.5498 1.1377c4.5498 0 8.3418 -7.77246 11.375 -23.3174c3.03223 -15.5449 5.49707 -34.8818 7.39258 -58.0098c1.89648 -23.1279 3.22266 -46.4453 3.98145 -69.9521c0.757812 -23.5068 1.32715 -43.6025 1.70605 -60.2842
c0.378906 -16.6826 0.568359 -25.7822 0.568359 -27.2988c0 -31.0898 -0.947266 -62.3701 -2.84277 -93.8389c-1.89648 -31.4697 -4.74023 -60.4736 -8.53125 -87.0146z" />
</svg>
