<?xml version="1.0" standalone="no"?>
<!DOCTYPE svg PUBLIC "-//W3C//DTD SVG 1.1//EN" "http://www.w3.org/Graphics/SVG/1.1/DTD/svg11.dtd" >
<svg xmlns="http://www.w3.org/2000/svg" xmlns:xlink="http://www.w3.org/1999/xlink" version="1.1" viewBox="-10 0 1029 1000">
   <path fill="currentColor"
d="M521.725 586.896l-2.07031 373.448c0 13.1035 -5.51758 19.6553 -16.5508 19.6553c-7.58594 0 -16.3789 -3.79395 -26.3789 -11.3799s-15 -15.8623 -15 -24.8271v-6.20703c2.06836 -13.793 3.44727 -28.2764 4.13672 -43.4482
c0.689453 -15.1729 1.03516 -31.0352 1.03516 -47.5869l1.03516 -256.551l-237.932 11.3789l3.10352 37.2412v1.03418c0 3.44824 -1.55273 6.89648 -4.65625 10.3457c-3.10352 3.44824 -7.41211 5.17188 -12.9297 5.17188c-7.58594 0 -16.3809 -3.96582 -26.3809 -11.8965
s-15 -15.6895 -15 -23.2754v-4.13867c0.691406 -5.5166 1.20703 -10.5166 1.55273 -15c0.345703 -4.48242 0.517578 -9.1377 0.517578 -13.9648c0 -4.13867 -0.171875 -8.62109 -0.517578 -13.4482c-0.345703 -4.82812 -0.861328 -10 -1.55273 -15.5176l-18.6191 -211.034
c-0.689453 -8.27637 -2.24219 -17.4141 -4.65625 -27.4141s-6.37891 -20.5176 -11.8965 -31.5518c-2.75781 -5.51758 -4.13672 -10 -4.13672 -13.4482c0 -4.82812 3.79297 -7.24121 11.3789 -7.24121c8.96484 0 28.6211 5.5166 58.9648 16.5518l263.793 -15.5176
l1.03516 -187.241c0 -8.96582 -0.689453 -17.9316 -2.06836 -26.8965c-1.38086 -8.96582 -3.10352 -16.8965 -5.17383 -23.793c0 -0.69043 -0.171875 -1.37988 -0.517578 -2.06934c-0.34375 -0.689453 -0.515625 -1.37891 -0.515625 -2.06934
c0 -4.1377 3.79297 -6.20605 11.3789 -6.20605c4.82812 0 11.3789 1.03418 19.6543 3.10254c8.27734 2.06934 15.6895 5.17285 22.2422 9.31055c6.55078 4.1377 9.82812 10 9.82812 17.5869l-1.03516 215.172l287.586 -17.5859
c2.75781 0 5.3457 -0.172852 7.75781 -0.517578c2.41406 -0.344727 4.65625 -0.517578 6.72461 -0.517578c11.7246 0 21.207 4.31055 28.4492 12.9316c7.24023 8.62012 10.8613 16.7236 10.8613 24.3105c0 4.1377 -0.861328 7.75781 -2.58594 10.8613
s-2.93164 6.03516 -3.62109 8.79395l-30 222.413c15.8633 14.4834 23.793 26.207 23.793 35.1729s-6.55078 13.4482 -19.6543 13.4482zM803.104 297.241l-279.311 14.4824l-2.06836 228.621l254.482 -11.3799zM468.965 314.827l-263.793 16.5518l20.6895 223.448
l242.07 -11.3789z" />
</svg>
