<?xml version="1.0" standalone="no"?>
<!DOCTYPE svg PUBLIC "-//W3C//DTD SVG 1.1//EN" "http://www.w3.org/Graphics/SVG/1.1/DTD/svg11.dtd" >
<svg xmlns="http://www.w3.org/2000/svg" xmlns:xlink="http://www.w3.org/1999/xlink" version="1.1" viewBox="-10 0 1150 1000">
   <path fill="currentColor"
d="M527.526 931.828c2.29395 -20.6455 3.63281 -37.4678 4.01465 -50.4668c0.382812 -12.998 0.573242 -30.2031 0.573242 -51.6123l4.58789 -462.223c-40.5254 47.4072 -79.5215 89.4629 -116.989 126.165c-37.4668 36.7031 -69.3906 65.1855 -95.7705 85.4482
s-44.1572 30.3945 -53.333 30.3945c-6.11719 0 -9.17578 -2.67676 -9.17578 -8.0293c0 -3.05859 1.5293 -7.26367 4.58789 -12.6162s8.02832 -11.0869 14.9102 -17.2041c16.0576 -15.293 36.3203 -36.1289 60.7891 -62.5088
c24.4678 -26.3799 51.0391 -56.2012 79.7129 -89.4629s57.3477 -68.2432 86.0215 -104.946c28.6738 -36.7021 54.8623 -72.8311 78.5664 -108.387c23.7031 -35.5557 43.0107 -68.8174 57.9209 -99.7852s22.748 -57.5391 23.5127 -79.7129
c0 -4.58789 2.67578 -6.88184 8.02832 -6.88184c6.11719 0 14.1465 2.48438 24.0859 7.45508c9.94043 4.96973 18.9248 11.2783 26.9541 18.9248c8.02832 7.64648 12.043 14.9102 12.043 21.792c0 2.29395 -5.92578 14.1455 -17.7783 35.5557
c-11.8516 21.4092 -28.6738 48.7451 -50.4658 82.0068s-47.5986 69.7734 -77.4189 109.534l3.44043 668.674c0 10.7051 -6.49902 16.0576 -19.498 16.0576c-6.88184 0 -13.7637 -2.29395 -20.6455 -6.88184c-10.7041 -6.88184 -18.1602 -12.6162 -22.3652 -17.2041
s-6.30859 -10.3232 -6.30859 -17.2051v-6.88086z" />
</svg>
