<?xml version="1.0" standalone="no"?>
<!DOCTYPE svg PUBLIC "-//W3C//DTD SVG 1.1//EN" "http://www.w3.org/Graphics/SVG/1.1/DTD/svg11.dtd" >
<svg xmlns="http://www.w3.org/2000/svg" xmlns:xlink="http://www.w3.org/1999/xlink" version="1.1" viewBox="-10 0 1032 1000">
   <path fill="currentColor"
d="M511.682 407.61c52.3887 109.027 115.221 203.717 188.495 284.071c73.2744 80.3535 162.301 146.726 267.08 199.115c8.49512 4.95508 12.7432 9.20312 12.7432 12.7432c0 4.95605 -3.89355 10.2656 -11.6816 15.9287
c-7.78711 5.66406 -15.752 10.2656 -23.8936 13.8057s-13.2744 5.30957 -15.3984 5.30957c-2.83203 0 -15.0439 -5.84082 -36.6367 -17.5215c-21.5938 -11.6816 -49.2041 -29.9121 -82.832 -54.6904c-33.6289 -24.7793 -70.0889 -56.8145 -109.381 -96.1064
s-78.4072 -86.5488 -117.345 -141.77c-38.9385 -55.2217 -74.6904 -118.938 -107.257 -191.15c-7.08008 32.5664 -16.2832 64.9551 -27.6104 97.168c-11.3281 32.2119 -24.4248 62.4775 -39.292 90.7959c-28.3193 53.0977 -61.5938 99.4697 -99.8232 139.115
c-38.2305 39.6465 -76.2832 72.7432 -114.159 99.292s-71.5049 46.5488 -100.886 60c-29.3799 13.4512 -49.3799 20.1768 -60 20.1768c-9.20312 0 -13.8047 -2.83105 -13.8047 -8.49512c0 -7.78809 8.84961 -16.2832 26.5488 -25.4863
c60.1768 -31.8584 111.504 -66.9033 153.982 -105.133c42.4775 -38.2305 77.6982 -76.9912 105.663 -116.283s50.0889 -76.9912 66.3721 -113.098s28.6729 -68.4951 37.168 -97.168s14.5137 -50.7969 18.0527 -66.3721l-259.114 14.8672
c-7.78809 0.708008 -14.5137 1.23926 -20.1777 1.59277c-5.66309 0.354492 -10.6191 0.53125 -14.8672 0.53125c-9.20312 0 -17.168 -3.3623 -23.8936 -10.0879c-6.72559 -6.72656 -12.0352 -13.9824 -15.9297 -21.7705
c-3.89355 -7.78711 -5.83984 -13.4512 -5.83984 -16.9912s1.76953 -5.30957 5.30957 -5.30957c1.41602 0 2.47754 0.176758 3.18555 0.53125c0.708008 0.353516 1.41602 0.530273 2.12402 0.530273c7.78711 2.12402 15.3984 3.54004 22.832 4.24805
s14.6904 1.0625 21.7695 1.0625h12.7432l280.354 -15.9297c5.66309 -33.2744 9.73438 -67.4336 12.2119 -102.478c2.47852 -35.0449 3.7168 -70.2656 3.7168 -105.664v-41.416c0 -5.66309 -0.530273 -13.0967 -1.59277 -22.3008
c-1.06152 -9.20312 -3.00879 -17.6992 -5.84082 -25.4863c0 -1.41602 -0.176758 -2.30078 -0.530273 -2.65527c-0.354492 -0.353516 -0.53125 -0.884766 -0.53125 -1.59277c0 -4.95605 3.18555 -7.43359 9.55762 -7.43359c5.66309 0 13.2744 1.59277 22.832 4.77832
c9.55664 3.18652 18.2295 7.61133 26.0176 13.2744c7.78711 5.66406 11.6807 12.3896 11.6807 20.1777v18.0527c0 43.8936 -1.76953 86.5488 -5.30957 127.965c-3.53906 41.416 -8.1416 81.9463 -13.8047 121.593l284.602 -16.9912
c11.3271 -0.708008 21.7695 -1.77051 31.3271 -3.18555c9.55762 -1.41602 19.292 -3.54004 29.2041 -6.37207c2.83105 -1.41602 5.66309 -2.12402 8.49512 -2.12402c4.24805 0 10.2656 1.94727 18.0527 5.84082c7.78809 3.89355 14.8682 8.84961 21.2393 14.8672
c6.37207 6.01758 9.55762 12.9209 9.55762 20.708c0 8.49512 -4.60156 13.4512 -13.8057 14.8672z" />
</svg>
