<?xml version="1.0" standalone="no"?>
<!DOCTYPE svg PUBLIC "-//W3C//DTD SVG 1.1//EN" "http://www.w3.org/Graphics/SVG/1.1/DTD/svg11.dtd" >
<svg xmlns="http://www.w3.org/2000/svg" xmlns:xlink="http://www.w3.org/1999/xlink" version="1.1" viewBox="-10 0 1050 1000">
   <path fill="currentColor"
d="M98.918 915.135c-5.04492 0 -9.72949 0.181641 -14.0537 0.541016c-4.32422 0.361328 -8.28809 0.541016 -11.8916 0.541016c-12.9727 0 -23.4238 -2.88281 -31.3516 -8.64844c-9.36914 -10.8105 -16.2158 -23.4238 -20.54 -37.8379
c0 -1.44141 -0.180664 -2.52344 -0.541016 -3.24414s-0.540039 -1.44141 -0.540039 -2.16211c0 -3.60352 1.80176 -5.4043 5.40527 -5.4043c2.16211 0 3.96387 0.359375 5.40527 1.08008c8.64844 2.88281 17.8379 4.68555 27.5674 5.40625s19.2793 1.08008 28.6484 1.08008
l355.676 -12.9727l-6.48633 -704.865c0 -10.8105 -0.720703 -20.1797 -2.16211 -28.1074s-4.68457 -16.5762 -9.72949 -25.9453c-0.720703 -1.44141 -1.08105 -2.88281 -1.08105 -4.32422c0 -4.32617 3.96387 -6.48828 11.8916 -6.48828
c10.0898 0 22.3418 2.88281 36.7568 8.65039c14.4141 5.76562 21.6211 12.6113 21.6211 20.5391l2.16211 313.514l195.676 -10.8105c21.6221 -2.16211 21.6221 -2.16211 37.8379 -3.7832c10.8115 -1.08203 19.8203 -3.0625 27.0273 -5.94727
c4.32422 -1.44141 7.92773 -2.16211 10.8105 -2.16211c9.36914 0 20.1807 4.86523 32.4326 14.5957c12.252 9.72852 18.3779 18.5586 18.3779 26.4863s-5.76562 12.6133 -17.2969 14.0547l-304.865 18.377l2.16211 374.055l366.487 -12.9727
c20.1797 -0.720703 40 -3.24414 59.459 -7.56836c4.32422 -1.44141 7.92773 -2.16211 10.8105 -2.16211c9.37012 0 19.2793 5.22656 29.7305 15.6758c10.4502 10.4512 15.6758 19.6406 15.6758 27.5684c0 9.36914 -4.68555 14.0527 -14.0547 14.0527z" />
</svg>
