<?xml version="1.0" standalone="no"?>
<!DOCTYPE svg PUBLIC "-//W3C//DTD SVG 1.1//EN" "http://www.w3.org/Graphics/SVG/1.1/DTD/svg11.dtd" >
<svg xmlns="http://www.w3.org/2000/svg" xmlns:xlink="http://www.w3.org/1999/xlink" version="1.1" viewBox="-10 0 1104 1000">
   <path fill="currentColor"
d="M438.064 919.256c2.38184 -15.8809 3.9707 -30.1738 4.76465 -42.8789s1.19043 -28.1885 1.19043 -46.4512l3.57324 -705.112l-341.836 19.0576c-7.14648 0.793945 -13.499 1.19043 -19.0566 1.19043h-14.293c-14.293 0 -25.0127 -3.17578 -32.1592 -9.52832
s-13.499 -19.0566 -19.0566 -38.1143c-0.793945 -1.58789 -1.19141 -3.57324 -1.19141 -5.95508c0 -3.17578 1.98535 -4.76465 5.95508 -4.76465c0.793945 0 1.58789 0.199219 2.38281 0.595703c0.793945 0.397461 1.58789 0.595703 2.38184 0.595703
c5.55859 1.58789 11.5137 2.7793 17.8662 3.57324c6.35156 0.793945 12.3076 1.19141 17.8652 1.19141c3.9707 0 7.94043 -0.199219 11.9111 -0.595703c3.96973 -0.397461 7.54297 -0.595703 10.7197 -0.595703l777.767 -47.6426
c20.6455 -0.793945 38.5107 -3.9707 53.5977 -9.52832c1.58887 -0.793945 4.36719 -1.19141 8.33789 -1.19141c12.7051 0 24.417 5.75684 35.1367 17.2705s16.0791 20.8438 16.0791 27.9902c0 8.73438 -5.16113 13.8955 -15.4844 15.4834l-453.796 26.2041l-2.38184 222.729
c6.35156 -9.5293 13.498 -14.293 21.4385 -14.293c4.76465 0 15.6826 4.16895 32.7549 12.5059c17.0713 8.33789 37.5186 19.0576 61.3398 32.1592s48.834 27.3945 75.0371 42.8779c26.2031 15.4844 51.4141 30.7695 75.6328 45.8564
c24.2178 15.0869 44.665 28.1885 61.3398 39.3057c10.3223 6.35156 15.4834 14.6895 15.4834 25.0117c0 3.9707 -1.98438 10.7197 -5.95508 20.248c-7.94043 14.293 -15.8809 21.4395 -23.8213 21.4395c-3.96973 0 -10.3223 -2.7793 -19.0566 -8.33789
c-27.792 -21.4385 -57.9658 -42.8779 -90.5215 -64.3174c-32.5557 -21.4385 -63.7217 -40.8926 -93.499 -58.3623c-29.7764 -17.4688 -54.7891 -31.96 -75.0371 -43.4736s-31.96 -17.668 -35.1357 -18.4619l-3.57324 569.33c0 15.0869 -6.35254 22.6309 -19.0576 22.6309
c-7.94043 0 -17.8662 -3.9707 -29.7764 -11.9111c-11.9111 -7.94043 -17.8662 -17.8662 -17.8662 -29.7764v-5.95508z" />
</svg>
